<?xml version="1.0" encoding="UTF-8" standalone="no"?>
<!DOCTYPE svg PUBLIC "-//W3C//DTD SVG 1.1//EN" "http://www.w3.org/Graphics/SVG/1.1/DTD/svg11.dtd">
<svg width="100%" height="100%" viewBox="0 0 281 282" version="1.1" xmlns="http://www.w3.org/2000/svg" xmlns:xlink="http://www.w3.org/1999/xlink" xml:space="preserve" xmlns:serif="http://www.serif.com/" style="fill-rule:evenodd;clip-rule:evenodd;">
    <g id="Page-1">
        <g id="Path-copy-5" transform="matrix(1,0,0,1,122.752,9.03902)">
            <clipPath id="_clip1">
                <rect x="80.77" y="175.272" width="71.425" height="92.69"/>
            </clipPath>
            <g clip-path="url(#_clip1)">
                <path d="M118.332,175.272C121.376,175.753 123.721,179.902 125.457,182.118C128.999,181.978 132.364,182.875 135.709,183.871C141.765,183.011 146.846,179.609 152.194,176.962C146.775,181.388 146.04,188.589 146.659,195.247C146.889,198.702 145.914,202.454 144.707,205.991C142.449,211.755 138.089,217.83 133.028,217.519C131.115,217.458 130.003,216.375 128.582,215.218C128.306,217.561 127.222,219.652 126.177,221.725C123.763,226.32 117.456,228.345 111.617,233.252C105.778,238.159 113.485,255.684 115.354,258.877C117.223,262.071 122.439,263.239 120.415,266.121C119.796,267.073 118.849,267.413 117.837,267.783L116.464,267.962C110.467,267.792 107.829,267.807 104.775,262.782L102.395,262.851C99.624,262.727 100.779,262.783 98.93,262.691C95.84,262.571 96.335,259.633 95.791,258.081C94.921,252.813 96.942,247.517 96.878,242.247C96.856,240.377 94.21,233.755 93.264,231.388C90.301,231.946 87.321,232.053 84.315,232.203C77.385,232.186 70.503,231.337 63.67,230.259C62.338,235.761 58.38,243.463 61.652,249.056C65.623,254.84 68.41,256.443 72.729,256.792C77.048,257.14 78.024,262.019 76.979,263.761C76.054,264.965 74.428,265.184 73.047,265.476L70.284,265.606C68.11,265.532 66.167,264.945 64.229,264.04C60.994,262.233 57.653,258.477 55.17,255.781C55.748,256.857 56.093,258.96 55.569,259.938C54.101,262.018 47.753,262.005 44.846,260.713C41.543,259.244 33.563,248.936 32.329,241.216C33.592,238.828 35.076,236.558 36.562,234.284L37.452,232.918C39.522,229.725 41.51,226.477 42.813,222.836C37.539,219.47 34.715,213.99 35.082,207.783L35.214,207.064C30.025,208.036 32.716,207.674 27.134,208.097C9.358,208.042 -6.275,195.985 2.528,177.246C3.1,176.136 3.645,175.127 4.615,175.609C5.394,175.996 5.282,177.547 4.89,179.266C-0.141,201.657 24.45,201.829 39.567,197.685C41.068,197.274 44.052,194.504 46.119,193.586C49.498,192.085 53.165,191.476 56.804,191.037C65.857,190.005 76.736,194.775 82.264,194.931C87.792,195.087 95.656,193.607 100.483,193.919C103.986,194.079 107.425,194.711 110.805,195.612C112.992,184.95 113.147,177.091 118.332,175.272ZM46.464,239.354C45.486,241.334 44.246,243.258 43.579,245.342C42.799,248.154 47.047,251.188 48.694,252.926L49.258,253.418L50.184,253.652C51.347,253.207 53.687,253.894 54.927,254.23C52.643,252.068 49.2,248.894 46.72,246.892C46.042,244.873 46.17,242.844 46.333,240.792L46.398,239.97C46.409,239.833 46.419,239.696 46.429,239.558L46.464,239.354Z"/>
            </g>
        </g>
        <g id="Path-copy-51" serif:id="Path-copy-5" transform="matrix(1,0,0,1,4.10234,8.65378)">
            <clipPath id="_clip2">
                <rect x="0" y="175.272" width="85.795" height="92.69"/>
            </clipPath>
            <g clip-path="url(#_clip2)">
                <path d="M118.332,175.272C121.376,175.753 123.721,179.902 125.457,182.118C128.999,181.978 132.364,182.875 135.709,183.871C141.765,183.011 146.846,179.609 152.194,176.962C146.775,181.388 146.04,188.589 146.659,195.247C146.889,198.702 145.914,202.454 144.707,205.991C142.449,211.755 138.089,217.83 133.028,217.519C131.115,217.458 130.003,216.375 128.582,215.218C128.306,217.561 127.222,219.652 126.177,221.725C123.763,226.32 117.456,228.345 111.617,233.252C105.778,238.159 113.485,255.684 115.354,258.877C117.223,262.071 122.439,263.239 120.415,266.121C119.796,267.073 118.849,267.413 117.837,267.783L116.464,267.962C110.467,267.792 107.829,267.807 104.775,262.782L102.395,262.851C99.624,262.727 100.779,262.783 98.93,262.691C95.84,262.571 96.335,259.633 95.791,258.081C94.921,252.813 96.942,247.517 96.878,242.247C96.856,240.377 94.21,233.755 93.264,231.388C90.301,231.946 87.321,232.053 84.315,232.203C77.385,232.186 70.503,231.337 63.67,230.259C62.338,235.761 58.38,243.463 61.652,249.056C65.623,254.84 68.41,256.443 72.729,256.792C77.048,257.14 78.024,262.019 76.979,263.761C76.054,264.965 74.428,265.184 73.047,265.476L70.284,265.606C68.11,265.532 66.167,264.945 64.229,264.04C60.994,262.233 57.653,258.477 55.17,255.781C55.748,256.857 56.093,258.96 55.569,259.938C54.101,262.018 47.753,262.005 44.846,260.713C41.543,259.244 33.563,248.936 32.329,241.216C33.592,238.828 35.076,236.558 36.562,234.284L37.452,232.918C39.522,229.725 41.51,226.477 42.813,222.836C37.539,219.47 34.715,213.99 35.082,207.783L35.214,207.064C30.025,208.036 32.716,207.674 27.134,208.097C9.358,208.042 -6.275,195.985 2.528,177.246C3.1,176.136 3.645,175.127 4.615,175.609C5.394,175.996 5.282,177.547 4.89,179.266C-0.141,201.657 24.45,201.829 39.567,197.685C41.068,197.274 44.052,194.504 46.119,193.586C49.498,192.085 53.165,191.476 56.804,191.037C65.857,190.005 76.736,194.775 82.264,194.931C87.792,195.087 95.656,193.607 100.483,193.919C103.986,194.079 107.425,194.711 110.805,195.612C112.992,184.95 113.147,177.091 118.332,175.272ZM46.464,239.354C45.486,241.334 44.246,243.258 43.579,245.342C42.799,248.154 47.047,251.188 48.694,252.926L49.258,253.418L50.184,253.652C51.347,253.207 53.687,253.894 54.927,254.23C52.643,252.068 49.2,248.894 46.72,246.892C46.042,244.873 46.17,242.844 46.333,240.792L46.398,239.97C46.409,239.833 46.419,239.696 46.429,239.558L46.464,239.354Z"/>
            </g>
        </g>
        <g id="Rectangle" transform="matrix(0.446514,0,0,0.744862,21.9179,70.0084)">
            <path d="M165.683,126.72C165.683,123.462 161.27,120.816 155.835,120.816C150.399,120.816 145.987,123.462 145.987,126.72L145.987,274.803C145.987,278.061 150.399,280.706 155.835,280.706C161.27,280.706 165.683,278.061 165.683,274.803L165.683,126.72Z"/>
        </g>
        <g id="Rectangle1" serif:id="Rectangle" transform="matrix(0.446514,0,0,0.744862,132.578,70.2886)">
            <path d="M165.683,126.72C165.683,123.462 161.27,120.816 155.835,120.816C150.399,120.816 145.987,123.462 145.987,126.72L145.987,274.803C145.987,278.061 150.399,280.706 155.835,280.706C161.27,280.706 165.683,278.061 165.683,274.803L165.683,126.72Z"/>
        </g>
        <g id="Rectangle-2" transform="matrix(0.484817,0,0,0.498326,15.5717,139.493)">
            <path d="M165.683,270.858C165.683,265.423 161.147,261.01 155.56,261.01L10.306,261.01C4.719,261.01 0.183,265.423 0.183,270.858C0.183,276.294 4.719,280.706 10.306,280.706L155.56,280.706C161.147,280.706 165.683,276.294 165.683,270.858Z"/>
        </g>
        <g id="Rectangle-21" serif:id="Rectangle-2" transform="matrix(0.484817,0,0,0.498326,197.674,139.493)">
            <path d="M165.683,270.858C165.683,265.423 161.147,261.01 155.56,261.01L10.306,261.01C4.719,261.01 0.183,265.423 0.183,270.858C0.183,276.294 4.719,280.706 10.306,280.706L155.56,280.706C161.147,280.706 165.683,276.294 165.683,270.858Z"/>
        </g>
        <g id="Group" transform="matrix(0.831394,0,0,0.831394,92.87,143.764)">
            <g id="Combined-Shape" transform="matrix(0.992546,-0.121869,0.121869,0.992546,-9.89318,3.44472)">
                <path d="M10.969,2.591C15.362,1.615 18.274,0.592 22.817,0.592C26.919,0.592 31.152,1.76 35.459,3.046L35.459,160.709C31.838,162.101 27.904,162.863 23.793,162.863C19.239,162.863 14.904,161.927 10.969,160.237L10.969,2.591Z" style="fill:rgb(186,210,58);stroke:rgb(71,71,71);stroke-width:1px;"/>
            </g>
            <g id="Combined-Shape1" serif:id="Combined-Shape" transform="matrix(0.992546,-0.121869,0.121869,0.992546,-17.6546,4.81133)">
                <path d="M38.159,144.476C35.499,145.2 32.738,145.571 29.926,145.571C27.499,145.571 25.11,145.295 22.789,144.753C21.855,144.535 20.92,145.116 20.702,146.051C20.484,146.986 21.065,147.92 22,148.138C24.578,148.74 27.233,149.046 29.926,149.046C33.046,149.046 36.114,148.635 39.072,147.83C39.998,147.578 40.544,146.623 40.292,145.697C40.04,144.771 39.085,144.224 38.159,144.476Z" style="fill:rgb(71,71,71);fill-rule:nonzero;"/>
            </g>
            <g id="Combined-Shape-Copy-2" transform="matrix(0.992546,-0.121869,0.121869,0.992546,-16.82,4.65665)">
                <path d="M37.312,137.576C34.652,138.3 31.89,138.671 29.078,138.671C26.652,138.671 24.262,138.395 21.942,137.853C21.007,137.635 20.073,138.216 19.855,139.151C19.637,140.086 20.218,141.02 21.153,141.238C23.731,141.84 26.385,142.147 29.078,142.147C32.199,142.147 35.267,141.735 38.224,140.93C39.15,140.678 39.697,139.723 39.445,138.797C39.193,137.871 38.238,137.324 37.312,137.576Z" style="fill:rgb(71,71,71);fill-rule:nonzero;"/>
            </g>
            <g id="Combined-Shape-Copy-3" transform="matrix(-0.994804,0.101804,-0.101804,-0.994804,29.5352,25.157)">
                <path d="M21.78,11.078C19.119,11.801 16.358,12.172 13.546,12.172C11.12,12.172 8.73,11.896 6.41,11.355C5.475,11.137 4.541,11.718 4.323,12.653C4.105,13.587 4.686,14.522 5.62,14.74C8.199,15.341 10.853,15.648 13.546,15.648C16.667,15.648 19.735,15.236 22.692,14.432C23.618,14.18 24.165,13.225 23.913,12.298C23.661,11.372 22.706,10.826 21.78,11.078Z" style="fill:rgb(71,71,71);fill-rule:nonzero;"/>
            </g>
            <g id="Combined-Shape-Copy" transform="matrix(0.992546,-0.121869,0.121869,0.992546,-18.4892,4.966)">
                <path d="M39.006,151.376C36.346,152.1 33.585,152.471 30.773,152.471C28.346,152.471 25.957,152.195 23.637,151.653C22.702,151.435 21.767,152.016 21.549,152.951C21.331,153.886 21.912,154.82 22.847,155.038C25.426,155.64 28.08,155.946 30.773,155.946C33.894,155.946 36.962,155.535 39.919,154.73C40.845,154.478 41.391,153.523 41.139,152.597C40.887,151.671 39.932,151.124 39.006,151.376Z" style="fill:rgb(71,71,71);fill-rule:nonzero;"/>
            </g>
        </g>
        <g id="Group-Copy-2" transform="matrix(0.678476,0.223206,-0.223206,0.678476,155.21,147.469)">
            <g id="Combined-Shape2" serif:id="Combined-Shape" transform="matrix(0.961262,-0.275637,0.275637,0.961262,-23.155,14.0276)">
                <path d="M24.861,1.642C29.336,0.676 34.048,0.071 39.045,0.071C43.559,0.071 47.524,0.686 51.795,2.143L51.795,175.024C47.813,176.559 43.486,177.401 38.963,177.401C33.954,177.401 29.187,176.369 24.861,174.506L24.861,1.642Z" style="fill:rgb(118,107,196);stroke:rgb(71,71,71);stroke-width:1px;"/>
            </g>
            <g id="Combined-Shape3" serif:id="Combined-Shape" transform="matrix(0.961262,-0.275637,0.275637,0.961262,-41.2125,21.874)">
                <path d="M65.602,155.087C62.687,155.881 59.661,156.287 56.58,156.287C53.92,156.287 51.302,155.984 48.759,155.391C47.735,155.152 46.711,155.789 46.472,156.813C46.233,157.838 46.869,158.862 47.894,159.101C50.72,159.76 53.628,160.096 56.58,160.096C60,160.096 63.362,159.645 66.602,158.763C67.617,158.487 68.216,157.44 67.94,156.425C67.664,155.41 66.617,154.811 65.602,155.087Z" style="fill:rgb(71,71,71);fill-rule:nonzero;"/>
            </g>
            <g id="Combined-Shape-Copy-21" serif:id="Combined-Shape-Copy-2" transform="matrix(0.961262,-0.275637,0.275637,0.961262,-39.2753,21.0115)">
                <path d="M63.503,147.764C60.587,148.557 57.561,148.964 54.48,148.964C51.82,148.964 49.202,148.661 46.659,148.068C45.635,147.829 44.611,148.466 44.372,149.49C44.133,150.514 44.77,151.539 45.794,151.777C48.62,152.437 51.529,152.773 54.48,152.773C57.9,152.773 61.262,152.321 64.503,151.44C65.518,151.164 66.116,150.117 65.84,149.102C65.564,148.087 64.518,147.488 63.503,147.764Z" style="fill:rgb(71,71,71);fill-rule:nonzero;"/>
            </g>
            <g id="Combined-Shape-Copy-31" serif:id="Combined-Shape-Copy-3" transform="matrix(-0.974059,0.226293,-0.226293,-0.974059,36.9918,28.4694)">
                <path d="M25.005,13.506C22.089,14.299 19.063,14.706 15.982,14.706C13.323,14.706 10.704,14.403 8.161,13.81C7.137,13.571 6.113,14.208 5.874,15.232C5.635,16.256 6.272,17.281 7.296,17.519C10.122,18.179 13.031,18.515 15.982,18.515C19.402,18.515 22.764,18.063 26.005,17.182C27.02,16.906 27.619,15.859 27.342,14.844C27.066,13.829 26.02,13.23 25.005,13.506Z" style="fill:rgb(71,71,71);fill-rule:nonzero;"/>
            </g>
            <g id="Combined-Shape-Copy1" serif:id="Combined-Shape-Copy" transform="matrix(0.961262,-0.275637,0.275637,0.961262,-43.1497,22.7365)">
                <path d="M67.702,162.411C64.787,163.204 61.761,163.61 58.679,163.61C56.02,163.61 53.402,163.307 50.859,162.714C49.835,162.475 48.811,163.112 48.572,164.136C48.333,165.161 48.969,166.185 49.994,166.424C52.82,167.083 55.728,167.419 58.679,167.419C62.1,167.419 65.462,166.968 68.702,166.086C69.717,165.81 70.316,164.763 70.04,163.748C69.764,162.733 68.717,162.134 67.702,162.411Z" style="fill:rgb(71,71,71);fill-rule:nonzero;"/>
            </g>
        </g>
        <g id="Group-Copy-21" serif:id="Group-Copy-2" transform="matrix(0.678476,0.223206,-0.223206,0.678476,176.145,146.889)">
            <g id="Combined-Shape4" serif:id="Combined-Shape" transform="matrix(0.949916,-0.312505,0.312505,0.949916,-24.817,15.8565)">
                <path d="M24.861,1.642C29.278,1.083 37.062,-0.075 42.059,-0.075C46.573,-0.075 54.215,1.031 58.795,2.143L58.795,175.024C54.813,176.559 46.286,177.401 41.763,177.401C36.755,177.401 29.187,176.369 24.861,174.506L24.861,1.642Z" style="fill:rgb(226,124,149);stroke:rgb(71,71,71);stroke-width:1px;"/>
            </g>
            <g id="Combined-Shape5" serif:id="Combined-Shape" transform="matrix(0.961262,-0.275637,0.275637,0.961262,-33.2328,19.2488)">
                <path d="M65.602,155.087C62.687,155.881 59.661,156.287 56.58,156.287C53.92,156.287 51.302,155.984 48.759,155.391C47.735,155.152 46.711,155.789 46.472,156.813C46.233,157.838 46.869,158.862 47.894,159.101C50.72,159.76 53.628,160.096 56.58,160.096C60,160.096 63.362,159.645 66.602,158.763C67.617,158.487 68.216,157.44 67.94,156.425C67.664,155.41 66.617,154.811 65.602,155.087Z" style="fill:rgb(71,71,71);fill-rule:nonzero;"/>
            </g>
            <g id="Combined-Shape-Copy-22" serif:id="Combined-Shape-Copy-2" transform="matrix(0.961262,-0.275637,0.275637,0.961262,-31.2956,18.3863)">
                <path d="M63.503,147.764C60.587,148.557 57.561,148.964 54.48,148.964C51.82,148.964 49.202,148.661 46.659,148.068C45.635,147.829 44.611,148.466 44.372,149.49C44.133,150.514 44.77,151.539 45.794,151.777C48.62,152.437 51.529,152.773 54.48,152.773C57.9,152.773 61.262,152.321 64.503,151.44C65.518,151.164 66.116,150.117 65.84,149.102C65.564,148.087 64.518,147.488 63.503,147.764Z" style="fill:rgb(71,71,71);fill-rule:nonzero;"/>
            </g>
            <g id="Combined-Shape-Copy-32" serif:id="Combined-Shape-Copy-3" transform="matrix(-0.950903,0.30949,-0.30949,-0.950903,40.0223,25.1515)">
                <path d="M25.005,13.506C22.089,14.299 19.063,14.706 15.982,14.706C13.323,14.706 10.704,14.403 8.161,13.81C7.137,13.571 6.113,14.208 5.874,15.232C5.635,16.256 6.272,17.281 7.296,17.519C10.122,18.179 13.031,18.515 15.982,18.515C19.402,18.515 22.764,18.063 26.005,17.182C27.02,16.906 27.619,15.859 27.342,14.844C27.066,13.829 26.02,13.23 25.005,13.506Z" style="fill:rgb(71,71,71);fill-rule:nonzero;"/>
            </g>
            <g id="Combined-Shape-Copy2" serif:id="Combined-Shape-Copy" transform="matrix(0.961262,-0.275637,0.275637,0.961262,-35.1699,20.1113)">
                <path d="M67.702,162.411C64.787,163.204 61.761,163.61 58.679,163.61C56.02,163.61 53.402,163.307 50.859,162.714C49.835,162.475 48.811,163.112 48.572,164.136C48.333,165.161 48.969,166.185 49.994,166.424C52.82,167.083 55.728,167.419 58.679,167.419C62.1,167.419 65.462,166.968 68.702,166.086C69.717,165.81 70.316,164.763 70.04,163.748C69.764,162.733 68.717,162.134 67.702,162.411Z" style="fill:rgb(71,71,71);fill-rule:nonzero;"/>
            </g>
        </g>
        <g id="Group-Copy" transform="matrix(0.714249,0,0,0.714249,118.105,177.125)">
            <g id="Combined-Shape6" serif:id="Combined-Shape" transform="matrix(0.984808,-0.173648,0.173648,0.984808,-12.2949,5.02228)">
                <path d="M13.207,2.554C16.791,1.77 19.715,1.407 23.18,1.407C26.306,1.407 27.982,1.827 31.903,2.945L31.903,141.437C29.139,142.638 26.138,143.296 23.003,143.296C19.525,143.296 16.214,142.487 13.207,141.025L13.207,2.554Z" style="fill:rgb(107,196,139);stroke:rgb(71,71,71);stroke-width:1px;"/>
            </g>
            <g id="Combined-Shape7" serif:id="Combined-Shape" transform="matrix(0.984808,-0.173648,0.173648,0.984808,-21.871,7.50746)">
                <path d="M37.884,126.765C35.829,127.401 33.695,127.727 31.522,127.727C29.647,127.727 27.801,127.484 26.008,127.008C25.285,126.817 24.563,127.327 24.395,128.149C24.226,128.971 24.675,129.793 25.398,129.985C27.39,130.514 29.441,130.783 31.522,130.783C33.934,130.783 36.304,130.421 38.589,129.714C39.305,129.492 39.727,128.653 39.533,127.838C39.338,127.024 38.6,126.543 37.884,126.765Z" style="fill:rgb(71,71,71);fill-rule:nonzero;"/>
            </g>
            <g id="Combined-Shape-Copy-23" serif:id="Combined-Shape-Copy-2" transform="matrix(0.984808,-0.173648,0.173648,0.984808,-20.8418,7.23167)">
                <path d="M36.823,120.745C34.767,121.381 32.634,121.707 30.461,121.707C28.586,121.707 26.739,121.464 24.946,120.988C24.224,120.797 23.502,121.307 23.333,122.129C23.165,122.951 23.614,123.773 24.336,123.965C26.329,124.494 28.38,124.763 30.461,124.763C32.872,124.763 35.243,124.401 37.528,123.694C38.244,123.472 38.666,122.632 38.471,121.818C38.277,121.004 37.539,120.523 36.823,120.745Z" style="fill:rgb(71,71,71);fill-rule:nonzero;"/>
            </g>
            <g id="Combined-Shape-Copy-33" serif:id="Combined-Shape-Copy-3" transform="matrix(-0.986946,0.16105,-0.16105,-0.986946,24.7363,22.7146)">
                <path d="M17.362,10.377C15.306,11.014 13.173,11.34 11,11.34C9.125,11.34 7.279,11.097 5.486,10.621C4.763,10.429 4.041,10.94 3.873,11.762C3.704,12.584 4.153,13.406 4.875,13.598C6.868,14.127 8.919,14.396 11,14.396C13.412,14.396 15.782,14.034 18.067,13.327C18.783,13.105 19.205,12.265 19.011,11.451C18.816,10.636 18.078,10.156 17.362,10.377Z" style="fill:rgb(71,71,71);fill-rule:nonzero;"/>
            </g>
            <g id="Combined-Shape-Copy3" serif:id="Combined-Shape-Copy" transform="matrix(0.984808,-0.173648,0.173648,0.984808,-22.9002,7.78324)">
                <path d="M38.946,132.785C36.89,133.421 34.757,133.747 32.584,133.747C30.709,133.747 28.862,133.504 27.069,133.028C26.347,132.837 25.625,133.348 25.456,134.169C25.288,134.991 25.737,135.813 26.459,136.005C28.452,136.534 30.503,136.803 32.584,136.803C34.995,136.803 37.366,136.441 39.651,135.734C40.367,135.512 40.789,134.673 40.594,133.858C40.4,133.044 39.662,132.563 38.946,132.785Z" style="fill:rgb(71,71,71);fill-rule:nonzero;"/>
            </g>
        </g>
    </g>
</svg>
