<?xml version="1.0" encoding="UTF-8"?>
<svg width="281px" height="282px" viewBox="0 0 281 282" version="1.1" xmlns="http://www.w3.org/2000/svg" xmlns:xlink="http://www.w3.org/1999/xlink">
    <title>square-logo</title>
    <g id="Page-1" stroke="none" stroke-width="1" fill="none" fill-rule="evenodd">
        <path d="M118.33229,175.271762 C121.375766,175.752638 123.72096,179.90163 125.45687,182.118448 C128.999308,181.977676 132.363572,182.874953 135.70859,183.8708 C141.764555,183.011061 146.846404,179.608956 152.194479,176.962425 C146.775127,181.388287 146.039964,188.588735 146.659205,195.24729 C146.889493,198.702457 145.913524,202.453759 144.706998,205.991392 C142.449178,211.755063 138.088821,217.830383 133.028047,217.518786 C131.114881,217.458247 130.003477,216.374544 128.581543,215.217553 C128.305706,217.561054 127.221588,219.652165 126.176515,221.724776 C123.763128,226.320182 117.456446,228.345248 111.616809,233.252195 C105.77757,238.159217 113.485359,255.684253 115.354212,258.877381 C117.222762,262.070813 122.439112,263.239056 120.414995,266.121205 C119.795767,267.073049 118.848937,267.413483 117.837022,267.782738 L116.464054,267.961633 C110.466994,267.792046 107.829211,267.80663 104.775018,262.782356 L102.394629,262.850578 C99.6239287,262.727491 100.778614,262.783283 98.9301534,262.691219 C95.8396032,262.570913 96.3346851,259.633273 95.7909789,258.081194 C94.9212339,252.812615 96.9419167,247.516809 96.8781711,242.247191 C96.8556023,240.376602 94.2096099,233.755392 93.2643111,231.388169 C90.3009173,231.946321 87.3214476,232.052737 84.3150764,232.2026 C77.3853748,232.185619 70.5026704,231.336708 63.6697276,230.258682 C62.3381589,235.76134 58.380219,243.463218 61.6517691,249.055612 C65.6228218,254.840291 68.4095145,256.442907 72.728955,256.791696 C77.048349,257.140204 78.0236982,262.018726 76.9786807,263.761165 C76.0537162,264.965382 74.4280339,265.183969 73.0468181,265.475713 L70.2840146,265.605615 C68.1099184,265.532448 66.1666767,264.94523 64.2294507,264.039587 C60.9942953,262.232978 57.6529779,258.477119 55.1704435,255.780667 C55.7483964,256.857444 56.0931301,258.959518 55.5689183,259.937732 C54.1011402,262.017799 47.7529836,262.00509 44.8457546,260.712521 C41.5431903,259.24446 33.5629111,248.936471 32.3290867,241.216248 C33.591558,238.827876 35.0758372,236.557949 36.5621936,234.283963 L37.4524989,232.918104 C39.5222562,229.72539 41.5099505,226.476701 42.8126406,222.83589 C37.5392512,219.46977 34.7148964,213.990009 35.0815419,207.782824 L35.2138802,207.064299 C30.0251037,208.03603 32.7158836,207.674492 27.1341192,208.096895 C9.35800745,208.042485 -6.27465576,195.985109 2.52786241,177.245808 C3.10029092,176.136151 3.64483198,175.127282 4.61521373,175.609092 C5.39405289,175.995701 5.28217676,177.546546 4.89042329,179.266355 C-0.141219215,201.657292 24.4504664,201.828669 39.5674126,197.685342 C41.0677577,197.274039 44.0517244,194.503927 46.1187752,193.585608 C49.4975565,192.084648 53.1648788,191.475671 56.8044039,191.03687 C65.8566176,190.005003 76.7362691,194.775488 82.2641913,194.931257 C87.7921786,195.087019 95.6559442,193.607118 100.483186,193.918712 C103.985761,194.079029 107.425071,194.711489 110.8045,195.612422 C112.991963,184.949759 113.146613,177.091094 118.33229,175.271762 Z M46.4637762,239.353648 C45.4862087,241.333622 44.2456418,243.25828 43.578866,245.342408 C42.7985901,248.154076 47.0467408,251.187722 48.6940003,252.926351 L49.2576654,253.418483 L50.1837204,253.651641 C51.3473925,253.207296 53.6865267,253.894043 54.9273308,254.2298 C52.6425001,252.068089 49.2002349,248.893658 46.7202018,246.892407 C46.041848,244.873387 46.1699913,242.843844 46.3329022,240.792081 L46.3980915,239.970163 C46.4086557,239.832969 46.418917,239.695671 46.428647,239.558263 L46.4637762,239.353648 Z" id="Path-copy-5" fill="#000000"></path>
        <rect id="Rectangle" fill="#000000" x="145.986546" y="120.816463" width="19.6965975" height="159.890027" rx="8"></rect>
        <rect id="Rectangle-2" fill="#000000" x="0.183143798" y="261.009893" width="165.5" height="19.6965975" rx="8"></rect>
        <g id="Group" transform="translate(163.885959, 118.289266)">
            <path d="M10.9688844,2.59122815 C14.9193162,4.22831914 19.2506515,5.13196911 23.7930544,5.13196911 C27.8954268,5.13196911 31.8256435,4.3948989 35.4585999,3.04618352 L35.4585999,3.04618352 L35.4585999,160.708612 C31.8375074,162.100601 27.9043563,162.863373 23.7930544,162.863373 C19.2390905,162.863373 14.9037062,161.927482 10.9688855,160.237278 L10.9688855,160.237278 Z" id="Combined-Shape" stroke="#474747" fill="#BAD23A" transform="translate(23.213742, 82.598418) rotate(-7.000000) translate(-23.213742, -82.598418) "></path>
            <path d="M38.1590499,144.476245 C35.4987367,145.200004 32.7375716,145.570601 29.9256102,145.570601 C27.4989841,145.570601 25.1096669,145.294628 22.7893704,144.753368 C21.8546309,144.535319 20.9201113,145.116311 20.7020626,146.051051 C20.4840138,146.985791 21.0650065,147.92031 21.9997461,148.138359 C24.5784501,148.739899 27.2326915,149.046471 29.9256102,149.046471 C33.0464998,149.046471 36.1144815,148.634694 39.0715213,147.830208 C39.9976927,147.578236 40.5442392,146.623163 40.2922672,145.696991 C40.0402952,144.77082 39.0852213,144.224273 38.1590499,144.476245 Z" id="Combined-Shape" fill="#474747" fill-rule="nonzero" transform="translate(30.504945, 146.730664) rotate(-7.000000) translate(-30.504945, -146.730664) "></path>
            <path d="M37.3118459,137.576322 C34.6515327,138.300081 31.8903675,138.670678 29.0784062,138.670678 C26.6517801,138.670678 24.2624629,138.394705 21.9421664,137.853444 C21.0074269,137.635396 20.0729073,138.216388 19.8548585,139.151128 C19.6368098,140.085868 20.2178025,141.020387 21.152542,141.238436 C23.7312461,141.839976 26.3854875,142.146548 29.0784062,142.146548 C32.1992958,142.146548 35.2672774,141.734771 38.2243173,140.930285 C39.1504886,140.678313 39.6970352,139.723239 39.4450632,138.797068 C39.1930912,137.870897 38.2380173,137.32435 37.3118459,137.576322 Z" id="Combined-Shape-Copy-2" fill="#474747" fill-rule="nonzero" transform="translate(29.657741, 139.830741) rotate(-7.000000) translate(-29.657741, -139.830741) "></path>
            <path d="M21.7797721,11.0777323 C19.1194589,11.8014909 16.3582937,12.1720879 13.5463324,12.1720879 C11.1197063,12.1720879 8.73038906,11.8961153 6.41009261,11.3548546 C5.47535305,11.1368059 4.54083348,11.7177986 4.32278473,12.6525381 C4.10473598,13.5872777 4.68572868,14.5217973 5.62046824,14.739846 C8.19917225,15.341386 10.8534137,15.6479581 13.5463324,15.6479581 C16.667222,15.6479581 19.7352036,15.2361809 22.6922435,14.4316956 C23.6184148,14.1797236 24.1649614,13.2246497 23.9129894,12.2984783 C23.6610174,11.3723069 22.7059435,10.8257603 21.7797721,11.0777323 Z" id="Combined-Shape-Copy-3" fill="#474747" fill-rule="nonzero" transform="translate(14.125667, 13.332151) rotate(-7.000000) translate(-14.125667, -13.332151) "></path>
            <path d="M39.006254,151.376168 C36.3459407,152.099927 33.5847756,152.470524 30.7728143,152.470524 C28.3461882,152.470524 25.9568709,152.194551 23.6365745,151.653291 C22.7018349,151.435242 21.7673153,152.016235 21.5492666,152.950974 C21.3312178,153.885714 21.9122105,154.820233 22.8469501,155.038282 C25.4256541,155.639822 28.0798956,155.946394 30.7728143,155.946394 C33.8937038,155.946394 36.9616855,155.534617 39.9187253,154.730132 C40.8448967,154.47816 41.3914433,153.523086 41.1394713,152.596914 C40.8874993,151.670743 39.9324253,151.124196 39.006254,151.376168 Z" id="Combined-Shape-Copy" fill="#474747" fill-rule="nonzero" transform="translate(31.352149, 153.630587) rotate(-7.000000) translate(-31.352149, -153.630587) "></path>
        </g>
        <g id="Group-Copy-2" transform="translate(202.359216, 104.897559)">
            <path d="M24.8613043,1.64166934 C29.2026733,3.45079143 33.9661589,4.44991663 38.9630116,4.44991663 C43.4771912,4.44991663 47.8009102,3.63447402 51.7950041,2.143079 L51.7950041,2.143079 L51.7950041,175.02429 C47.8129007,176.559307 43.4862103,177.400676 38.9630116,177.400676 C33.9544889,177.400676 29.186907,176.369046 24.8613055,174.506417 L24.8613055,174.506417 Z" id="Combined-Shape" stroke="#474747" fill="#766BC4" transform="translate(38.328154, 89.391882) rotate(-16.000000) translate(-38.328154, -89.391882) "></path>
            <path d="M65.6024831,155.087392 C62.6870959,155.880545 59.6611869,156.286676 56.5796114,156.286676 C53.9203175,156.286676 51.3019097,155.984242 48.7591404,155.391085 C47.7347769,155.152129 46.7106545,155.788828 46.471699,156.813192 C46.2327434,157.837555 46.8694424,158.861678 47.8938059,159.100633 C50.7197591,159.75985 53.6284924,160.095816 56.5796114,160.095816 C59.9997356,160.095816 63.3618789,159.644557 66.6024433,158.762937 C67.6174171,158.486806 68.2163672,157.440158 67.9402358,156.425184 C67.6641044,155.410211 66.6174569,154.81126 65.6024831,155.087392 Z" id="Combined-Shape" fill="#474747" fill-rule="nonzero" transform="translate(57.214494, 157.557967) rotate(-16.000000) translate(-57.214494, -157.557967) "></path>
            <path d="M63.5026002,147.76423 C60.5872129,148.557383 57.561304,148.963513 54.4797284,148.963513 C51.8204345,148.963513 49.2020267,148.66108 46.6592575,148.067923 C45.634894,147.828967 44.6107715,148.465666 44.371816,149.49003 C44.1328605,150.514393 44.7695595,151.538516 45.793923,151.777471 C48.6198762,152.436687 51.5286095,152.772654 54.4797284,152.772654 C57.8998526,152.772654 61.261996,152.321395 64.5025603,151.439775 C65.5175341,151.163644 66.1164842,150.116996 65.8403529,149.102022 C65.5642215,148.087048 64.5175739,147.488098 63.5026002,147.76423 Z" id="Combined-Shape-Copy-2" fill="#474747" fill-rule="nonzero" transform="translate(55.114611, 150.234804) rotate(-16.000000) translate(-55.114611, -150.234804) "></path>
            <path d="M25.004746,13.5062571 C22.0893588,14.2994105 19.0634498,14.7055408 15.9818743,14.7055408 C13.3225804,14.7055408 10.7041726,14.4031076 8.16140331,13.8099502 C7.13703981,13.5709947 6.11291739,14.2076937 5.87396187,15.2320572 C5.63500635,16.2564207 6.27170532,17.2805431 7.29606882,17.5194986 C10.122022,18.1787149 13.0307553,18.5146816 15.9818743,18.5146816 C19.4019985,18.5146816 22.7641419,18.0634226 26.0047062,17.1818023 C27.01968,16.905671 27.6186301,15.8590234 27.3424987,14.8440496 C27.0663673,13.8290758 26.0197198,13.2301257 25.004746,13.5062571 Z" id="Combined-Shape-Copy-3" fill="#474747" fill-rule="nonzero" transform="translate(16.616757, 15.976832) rotate(-16.000000) translate(-16.616757, -15.976832) "></path>
            <path d="M67.7023661,162.410554 C64.7869788,163.203707 61.7610699,163.609838 58.6794943,163.609838 C56.0202004,163.609838 53.4017926,163.307404 50.8590234,162.714247 C49.8346599,162.475292 48.8105374,163.111991 48.5715819,164.136354 C48.3326264,165.160718 48.9693254,166.18484 49.9936889,166.423795 C52.8196421,167.083012 55.7283754,167.418978 58.6794943,167.418978 C62.0996185,167.418978 65.4617619,166.96772 68.7023262,166.086099 C69.7173,165.809968 70.3162501,164.76332 70.0401188,163.748347 C69.7639874,162.733373 68.7173398,162.134423 67.7023661,162.410554 Z" id="Combined-Shape-Copy" fill="#474747" fill-rule="nonzero" transform="translate(59.314377, 164.881129) rotate(-16.000000) translate(-59.314377, -164.881129) "></path>
        </g>
        <g id="Group-Copy" transform="translate(191.811623, 138.138401)">
            <path d="M13.2067118,2.55350321 C16.2311041,3.94972689 19.5380188,4.71841075 23.0026612,4.71841075 C26.128486,4.71841075 29.1259011,4.09268633 31.9033101,2.94498215 L31.9033101,2.94498215 L31.9033101,141.436797 C29.1386873,142.638074 26.1382332,143.296298 23.0026612,143.296298 C19.5253815,143.296298 16.2143049,142.486749 13.2067125,141.024875 L13.2067125,141.024875 Z" id="Combined-Shape" stroke="#474747" fill="#6BC48B" transform="translate(22.555011, 72.776944) rotate(-10.000000) translate(-22.555011, -72.776944) "></path>
            <path d="M37.8843535,126.764659 C35.8286569,127.401085 33.6950293,127.726963 31.5221501,127.726963 C29.6470299,127.726963 27.8007393,127.484291 26.0077829,127.008342 C25.2854842,126.816605 24.5633554,127.327491 24.3948632,128.149439 C24.226371,128.971387 24.6753199,129.793142 25.3976187,129.98488 C27.3902536,130.513834 29.4412583,130.783413 31.5221501,130.783413 C33.9337466,130.783413 36.3044596,130.421324 38.589445,129.713912 C39.3051228,129.492345 39.7274543,128.652516 39.5327486,127.838102 C39.338043,127.023689 38.6000313,126.543092 37.8843535,126.764659 Z" id="Combined-Shape" fill="#474747" fill-rule="nonzero" transform="translate(31.969818, 128.747046) rotate(-10.000000) translate(-31.969818, -128.747046) "></path>
            <path d="M36.8228595,120.744628 C34.7671629,121.381053 32.6335353,121.706932 30.4606561,121.706932 C28.5855359,121.706932 26.7392453,121.46426 24.946289,120.988311 C24.2239902,120.796573 23.5018615,121.30746 23.3333692,122.129408 C23.164877,122.951356 23.6138259,123.77311 24.3361247,123.964848 C26.3287596,124.493803 28.3797644,124.763382 30.4606561,124.763382 C32.8722526,124.763382 35.2429657,124.401292 37.527951,123.693881 C38.2436289,123.472314 38.6659603,122.632485 38.4712547,121.818071 C38.276549,121.003657 37.5385374,120.52306 36.8228595,120.744628 Z" id="Combined-Shape-Copy-2" fill="#474747" fill-rule="nonzero" transform="translate(30.908324, 122.727014) rotate(-10.000000) translate(-30.908324, -122.727014) "></path>
            <path d="M17.3621367,10.3773844 C15.3064401,11.0138097 13.1728125,11.3396882 10.9999333,11.3396882 C9.12481311,11.3396882 7.27852251,11.0970161 5.48556616,10.6210673 C4.7632674,10.4293297 4.04113865,10.9402162 3.87264643,11.7621643 C3.70415422,12.5841124 4.15310312,13.405867 4.87540187,13.5976046 C6.86803679,14.126559 8.91904155,14.3961383 10.9999333,14.3961383 C13.4115298,14.3961383 15.7822429,14.0340487 18.0672282,13.3266376 C18.7829061,13.1050701 19.2052375,12.2652413 19.0105319,11.4508275 C18.8158262,10.6364137 18.0778146,10.1558169 17.3621367,10.3773844 Z" id="Combined-Shape-Copy-3" fill="#474747" fill-rule="nonzero" transform="translate(11.447601, 12.359771) rotate(-10.000000) translate(-11.447601, -12.359771) "></path>
            <path d="M38.9458474,132.784691 C36.8901508,133.421116 34.7565232,133.746995 32.583644,133.746995 C30.7085239,133.746995 28.8622333,133.504322 27.0692769,133.028374 C26.3469782,132.836636 25.6248494,133.347523 25.4563572,134.169471 C25.287865,134.991419 25.7368139,135.813173 26.4591126,136.004911 C28.4517475,136.533865 30.5027523,136.803445 32.583644,136.803445 C34.9952405,136.803445 37.3659536,136.441355 39.6509389,135.733944 C40.3666168,135.512376 40.7889483,134.672548 40.5942426,133.858134 C40.399537,133.04372 39.6615253,132.563123 38.9458474,132.784691 Z" id="Combined-Shape-Copy" fill="#474747" fill-rule="nonzero" transform="translate(33.031312, 134.767077) rotate(-10.000000) translate(-33.031312, -134.767077) "></path>
        </g>
    </g>
</svg>